{
	"asset":{
		"generator":"Khronos glTF Blender I/O v4.2.60",
		"version":"2.0"
	},
	"scene":0,
	"scenes":[
		{
			"name":"Scene",
			"nodes":[
				0
			]
		}
	],
	"nodes":[
		{
			"mesh":0,
			"name":"starting room.003"
		}
	],
	"materials":[
		{
			"doubleSided":true,
			"name":"stone",
			"pbrMetallicRoughness":{
				"baseColorTexture":{
					"index":0
				},
				"metallicFactor":0,
				"roughnessFactor":0.8615819215774536
			}
		}
	],
	"meshes":[
		{
			"name":"Cylinder.014",
			"primitives":[
				{
					"attributes":{
						"POSITION":0,
						"NORMAL":1,
						"TEXCOORD_0":2,
						"TEXCOORD_1":3,
						"TEXCOORD_2":4,
						"TEXCOORD_3":5
					},
					"indices":6,
					"material":0
				}
			]
		}
	],
	"textures":[
		{
			"sampler":0,
			"source":0
		}
	],
	"images":[
		{
			"bufferView":7,
			"mimeType":"image/png",
			"name":"Screenshot 2024-10-01 at 15.28.52"
		}
	],
	"accessors":[
		{
			"bufferView":0,
			"componentType":5126,
			"count":235,
			"max":[
				21.352481842041016,
				20.44216537475586,
				-14.661447525024414
			],
			"min":[
				9.172335624694824,
				-1.2908401489257812,
				-23.023746490478516
			],
			"type":"VEC3"
		},
		{
			"bufferView":1,
			"componentType":5126,
			"count":235,
			"type":"VEC3"
		},
		{
			"bufferView":2,
			"componentType":5126,
			"count":235,
			"type":"VEC2"
		},
		{
			"bufferView":3,
			"componentType":5126,
			"count":235,
			"type":"VEC2"
		},
		{
			"bufferView":4,
			"componentType":5126,
			"count":235,
			"type":"VEC2"
		},
		{
			"bufferView":5,
			"componentType":5126,
			"count":235,
			"type":"VEC2"
		},
		{
			"bufferView":6,
			"componentType":5123,
			"count":744,
			"type":"SCALAR"
		}
	],
	"bufferViews":[
		{
			"buffer":0,
			"byteLength":2820,
			"byteOffset":0,
			"target":34962
		},
		{
			"buffer":0,
			"byteLength":2820,
			"byteOffset":2820,
			"target":34962
		},
		{
			"buffer":0,
			"byteLength":1880,
			"byteOffset":5640,
			"target":34962
		},
		{
			"buffer":0,
			"byteLength":1880,
			"byteOffset":7520,
			"target":34962
		},
		{
			"buffer":0,
			"byteLength":1880,
			"byteOffset":9400,
			"target":34962
		},
		{
			"buffer":0,
			"byteLength":1880,
			"byteOffset":11280,
			"target":34962
		},
		{
			"buffer":0,
			"byteLength":1488,
			"byteOffset":13160,
			"target":34963
		},
		{
			"buffer":0,
			"byteLength":340755,
			"byteOffset":14648
		}
	],
	"samplers":[
		{
			"magFilter":9729,
			"minFilter":9987
		}
	],
	"buffers":[
		{
			"byteLength":355404,
			"uri":"data:application/octet-stream;base64,"
		}
	]
}
