{
	"asset":{
		"generator":"Khronos glTF Blender I/O v4.2.60",
		"version":"2.0"
	},
	"scene":0,
	"scenes":[
		{
			"name":"Scene",
			"nodes":[
				0
			]
		}
	],
	"nodes":[
		{
			"mesh":0,
			"name":"tree red",
			"translation":[
				-10.035295486450195,
				0,
				5.425106525421143
			]
		}
	],
	"materials":[
		{
			"doubleSided":true,
			"name":"pixel palette",
			"pbrMetallicRoughness":{
				"baseColorTexture":{
					"index":0
				},
				"metallicFactor":0,
				"roughnessFactor":0.8686636090278625
			}
		}
	],
	"meshes":[
		{
			"name":"Cube.009",
			"primitives":[
				{
					"attributes":{
						"POSITION":0,
						"NORMAL":1,
						"TEXCOORD_0":2,
						"TEXCOORD_1":3
					},
					"indices":4,
					"material":0
				}
			]
		}
	],
	"textures":[
		{
			"sampler":0,
			"source":0
		}
	],
	"images":[
		{
			"bufferView":5,
			"mimeType":"image/png",
			"name":"Screenshot 2024-10-01 at 15.28.52"
		}
	],
	"accessors":[
		{
			"bufferView":0,
			"componentType":5126,
			"count":9474,
			"max":[
				5.450526237487793,
				9.128872871398926,
				5.687620162963867
			],
			"min":[
				-5.044798374176025,
				0,
				-5.3548078536987305
			],
			"type":"VEC3"
		},
		{
			"bufferView":1,
			"componentType":5126,
			"count":9474,
			"type":"VEC3"
		},
		{
			"bufferView":2,
			"componentType":5126,
			"count":9474,
			"type":"VEC2"
		},
		{
			"bufferView":3,
			"componentType":5126,
			"count":9474,
			"type":"VEC2"
		},
		{
			"bufferView":4,
			"componentType":5123,
			"count":14868,
			"type":"SCALAR"
		}
	],
	"bufferViews":[
		{
			"buffer":0,
			"byteLength":113688,
			"byteOffset":0,
			"target":34962
		},
		{
			"buffer":0,
			"byteLength":113688,
			"byteOffset":113688,
			"target":34962
		},
		{
			"buffer":0,
			"byteLength":75792,
			"byteOffset":227376,
			"target":34962
		},
		{
			"buffer":0,
			"byteLength":75792,
			"byteOffset":303168,
			"target":34962
		},
		{
			"buffer":0,
			"byteLength":29736,
			"byteOffset":378960,
			"target":34963
		},
		{
			"buffer":0,
			"byteLength":340755,
			"byteOffset":408696
		}
	],
	"samplers":[
		{
			"magFilter":9729,
			"minFilter":9987
		}
	],
	"buffers":[
		{
			"byteLength":749452,
			"uri":"data:application/octet-stream;base64,"
		}
	]
}
