{
	"asset":{
		"generator":"Khronos glTF Blender I/O v4.2.60",
		"version":"2.0"
	},
	"scene":0,
	"scenes":[
		{
			"name":"Scene",
			"nodes":[
				0
			]
		}
	],
	"nodes":[
		{
			"mesh":0,
			"name":"ground"
		}
	],
	"materials":[
		{
			"doubleSided":true,
			"name":"pixel palette",
			"pbrMetallicRoughness":{
				"baseColorTexture":{
					"index":0
				},
				"metallicFactor":0,
				"roughnessFactor":0.8686636090278625
			}
		}
	],
	"meshes":[
		{
			"name":"Grid",
			"primitives":[
				{
					"attributes":{
						"POSITION":0,
						"NORMAL":1,
						"TEXCOORD_0":2,
						"TEXCOORD_1":3,
						"COLOR_0":4,
						"COLOR_1":5
					},
					"indices":6,
					"material":0
				}
			]
		}
	],
	"textures":[
		{
			"sampler":0,
			"source":0
		}
	],
	"images":[
		{
			"bufferView":7,
			"mimeType":"image/png",
			"name":"Screenshot 2024-10-01 at 15.28.52"
		}
	],
	"accessors":[
		{
			"bufferView":0,
			"componentType":5126,
			"count":17460,
			"max":[
				51.85593795776367,
				24.45913314819336,
				50.889591217041016
			],
			"min":[
				-50.5615119934082,
				-1.8652706146240234,
				-51.613704681396484
			],
			"type":"VEC3"
		},
		{
			"bufferView":1,
			"componentType":5126,
			"count":17460,
			"type":"VEC3"
		},
		{
			"bufferView":2,
			"componentType":5126,
			"count":17460,
			"type":"VEC2"
		},
		{
			"bufferView":3,
			"componentType":5126,
			"count":17460,
			"type":"VEC2"
		},
		{
			"bufferView":4,
			"componentType":5121,
			"count":17460,
			"normalized":true,
			"type":"VEC4"
		},
		{
			"bufferView":5,
			"componentType":5126,
			"count":17460,
			"type":"VEC3"
		},
		{
			"bufferView":6,
			"componentType":5123,
			"count":29700,
			"type":"SCALAR"
		}
	],
	"bufferViews":[
		{
			"buffer":0,
			"byteLength":209520,
			"byteOffset":0,
			"target":34962
		},
		{
			"buffer":0,
			"byteLength":209520,
			"byteOffset":209520,
			"target":34962
		},
		{
			"buffer":0,
			"byteLength":139680,
			"byteOffset":419040,
			"target":34962
		},
		{
			"buffer":0,
			"byteLength":139680,
			"byteOffset":558720,
			"target":34962
		},
		{
			"buffer":0,
			"byteLength":69840,
			"byteOffset":698400,
			"target":34962
		},
		{
			"buffer":0,
			"byteLength":209520,
			"byteOffset":768240,
			"target":34962
		},
		{
			"buffer":0,
			"byteLength":59400,
			"byteOffset":977760,
			"target":34963
		},
		{
			"buffer":0,
			"byteLength":340755,
			"byteOffset":1037160
		}
	],
	"samplers":[
		{
			"magFilter":9729,
			"minFilter":9987
		}
	],
	"buffers":[
		{
			"byteLength":1377916,
			"uri":"data:application/octet-stream;base64,"
		}
	]
}
