{
	"asset":{
		"generator":"Khronos glTF Blender I/O v4.2.60",
		"version":"2.0"
	},
	"scene":0,
	"scenes":[
		{
			"name":"Scene",
			"nodes":[
				0
			]
		}
	],
	"nodes":[
		{
			"mesh":0,
			"name":"floor start.002"
		}
	],
	"materials":[
		{
			"doubleSided":true,
			"name":"stone",
			"pbrMetallicRoughness":{
				"baseColorTexture":{
					"index":0
				},
				"metallicFactor":0,
				"roughnessFactor":0.8615819215774536
			}
		}
	],
	"meshes":[
		{
			"name":"Cylinder.009",
			"primitives":[
				{
					"attributes":{
						"POSITION":0,
						"NORMAL":1,
						"TEXCOORD_0":2
					},
					"indices":3,
					"material":0
				}
			]
		}
	],
	"textures":[
		{
			"sampler":0,
			"source":0
		}
	],
	"images":[
		{
			"bufferView":4,
			"mimeType":"image/png",
			"name":"Screenshot 2024-10-01 at 15.28.52"
		}
	],
	"accessors":[
		{
			"bufferView":0,
			"componentType":5126,
			"count":38480,
			"max":[
				81.50602722167969,
				73.84066009521484,
				27.70606803894043
			],
			"min":[
				-80.63021850585938,
				-10.581618309020996,
				-221.96153259277344
			],
			"type":"VEC3"
		},
		{
			"bufferView":1,
			"componentType":5126,
			"count":38480,
			"type":"VEC3"
		},
		{
			"bufferView":2,
			"componentType":5126,
			"count":38480,
			"type":"VEC2"
		},
		{
			"bufferView":3,
			"componentType":5123,
			"count":110751,
			"type":"SCALAR"
		}
	],
	"bufferViews":[
		{
			"buffer":0,
			"byteLength":461760,
			"byteOffset":0,
			"target":34962
		},
		{
			"buffer":0,
			"byteLength":461760,
			"byteOffset":461760,
			"target":34962
		},
		{
			"buffer":0,
			"byteLength":307840,
			"byteOffset":923520,
			"target":34962
		},
		{
			"buffer":0,
			"byteLength":221502,
			"byteOffset":1231360,
			"target":34963
		},
		{
			"buffer":0,
			"byteLength":340755,
			"byteOffset":1452864
		}
	],
	"samplers":[
		{
			"magFilter":9729,
			"minFilter":9987
		}
	],
	"buffers":[
		{
			"byteLength":1793620,
			"uri":"data:application/octet-stream;base64,"
		}
	]
}
