{
	"asset":{
		"generator":"Khronos glTF Blender I/O v4.2.60",
		"version":"2.0"
	},
	"scene":0,
	"scenes":[
		{
			"name":"Scene",
			"nodes":[
				0
			]
		}
	],
	"nodes":[
		{
			"mesh":0,
			"name":"Plane",
			"scale":[
				10,
				10,
				10
			]
		}
	],
	"materials":[
		{
			"doubleSided":true,
			"name":"Material.001",
			"pbrMetallicRoughness":{
				"baseColorTexture":{
					"index":0
				},
				"metallicFactor":0,
				"roughnessFactor":0.5
			}
		}
	],
	"meshes":[
		{
			"name":"Plane",
			"primitives":[
				{
					"attributes":{
						"POSITION":0,
						"NORMAL":1,
						"TEXCOORD_0":2,
						"TANGENT":3
					},
					"indices":4,
					"material":0
				}
			]
		}
	],
	"textures":[
		{
			"sampler":0,
			"source":0
		}
	],
	"images":[
		{
			"bufferView":5,
			"mimeType":"image/png",
			"name":"ocean"
		}
	],
	"accessors":[
		{
			"bufferView":0,
			"componentType":5126,
			"count":2500,
			"max":[
				50.11104202270508,
				1.370800495147705,
				50.5862922668457
			],
			"min":[
				-50.11104202270508,
				-1.40231192111969,
				-50.5862922668457
			],
			"type":"VEC3"
		},
		{
			"bufferView":1,
			"componentType":5126,
			"count":2500,
			"type":"VEC3"
		},
		{
			"bufferView":2,
			"componentType":5126,
			"count":2500,
			"type":"VEC2"
		},
		{
			"bufferView":3,
			"componentType":5126,
			"count":2500,
			"type":"VEC4"
		},
		{
			"bufferView":4,
			"componentType":5123,
			"count":14406,
			"type":"SCALAR"
		}
	],
	"bufferViews":[
		{
			"buffer":0,
			"byteLength":30000,
			"byteOffset":0,
			"target":34962
		},
		{
			"buffer":0,
			"byteLength":30000,
			"byteOffset":30000,
			"target":34962
		},
		{
			"buffer":0,
			"byteLength":20000,
			"byteOffset":60000,
			"target":34962
		},
		{
			"buffer":0,
			"byteLength":40000,
			"byteOffset":80000,
			"target":34962
		},
		{
			"buffer":0,
			"byteLength":28812,
			"byteOffset":120000,
			"target":34963
		},
		{
			"buffer":0,
			"byteLength":261,
			"byteOffset":148812
		}
	],
	"samplers":[
		{
			"magFilter":9729,
			"minFilter":9987
		}
	],
	"buffers":[
		{
			"byteLength":149076,
			"uri":"data:application/octet-stream;base64,"
		}
	]
}
