{
	"asset":{
		"generator":"Khronos glTF Blender I/O v4.2.60",
		"version":"2.0"
	},
	"scene":0,
	"scenes":[
		{
			"name":"Scene",
			"nodes":[
				0
			]
		}
	],
	"nodes":[
		{
			"mesh":0,
			"name":"tree without motion.003"
		}
	],
	"materials":[
		{
			"doubleSided":true,
			"name":"stone",
			"pbrMetallicRoughness":{
				"baseColorTexture":{
					"index":0
				},
				"metallicFactor":0,
				"roughnessFactor":0.8615819215774536
			}
		}
	],
	"meshes":[
		{
			"name":"tree.005",
			"primitives":[
				{
					"attributes":{
						"POSITION":0,
						"NORMAL":1,
						"TEXCOORD_0":2,
						"TEXCOORD_1":3
					},
					"indices":4,
					"material":0
				}
			]
		}
	],
	"textures":[
		{
			"sampler":0,
			"source":0
		}
	],
	"images":[
		{
			"bufferView":5,
			"mimeType":"image/png",
			"name":"Screenshot 2024-10-01 at 15.28.52"
		}
	],
	"accessors":[
		{
			"bufferView":0,
			"componentType":5126,
			"count":42267,
			"max":[
				57.37847137451172,
				25.950735092163086,
				-34.28855895996094
			],
			"min":[
				25.339845657348633,
				0,
				-65.02535247802734
			],
			"type":"VEC3"
		},
		{
			"bufferView":1,
			"componentType":5126,
			"count":42267,
			"type":"VEC3"
		},
		{
			"bufferView":2,
			"componentType":5126,
			"count":42267,
			"type":"VEC2"
		},
		{
			"bufferView":3,
			"componentType":5126,
			"count":42267,
			"type":"VEC2"
		},
		{
			"bufferView":4,
			"componentType":5123,
			"count":89340,
			"type":"SCALAR"
		}
	],
	"bufferViews":[
		{
			"buffer":0,
			"byteLength":507204,
			"byteOffset":0,
			"target":34962
		},
		{
			"buffer":0,
			"byteLength":507204,
			"byteOffset":507204,
			"target":34962
		},
		{
			"buffer":0,
			"byteLength":338136,
			"byteOffset":1014408,
			"target":34962
		},
		{
			"buffer":0,
			"byteLength":338136,
			"byteOffset":1352544,
			"target":34962
		},
		{
			"buffer":0,
			"byteLength":178680,
			"byteOffset":1690680,
			"target":34963
		},
		{
			"buffer":0,
			"byteLength":340755,
			"byteOffset":1869360
		}
	],
	"samplers":[
		{
			"magFilter":9729,
			"minFilter":9987
		}
	],
	"buffers":[
		{
			"byteLength":2210116,
			"uri":"data:application/octet-stream;base64,"
		}
	]
}
