{
	"asset":{
		"generator":"Khronos glTF Blender I/O v4.2.60",
		"version":"2.0"
	},
	"scene":0,
	"scenes":[
		{
			"name":"Scene",
			"nodes":[
				0
			]
		}
	],
	"nodes":[
		{
			"mesh":0,
			"name":"tree without motion.002"
		}
	],
	"materials":[
		{
			"doubleSided":true,
			"name":"stone",
			"pbrMetallicRoughness":{
				"baseColorTexture":{
					"index":0
				},
				"metallicFactor":0,
				"roughnessFactor":0.8615819215774536
			}
		}
	],
	"meshes":[
		{
			"name":"tree.004",
			"primitives":[
				{
					"attributes":{
						"POSITION":0,
						"NORMAL":1,
						"TEXCOORD_0":2,
						"TEXCOORD_1":3
					},
					"indices":4,
					"material":0
				}
			]
		}
	],
	"textures":[
		{
			"sampler":0,
			"source":0
		}
	],
	"images":[
		{
			"bufferView":5,
			"mimeType":"image/png",
			"name":"Screenshot 2024-10-01 at 15.28.52"
		}
	],
	"accessors":[
		{
			"bufferView":0,
			"componentType":5126,
			"count":42457,
			"max":[
				-21.775619506835938,
				27.256988525390625,
				3.5985374450683594
			],
			"min":[
				-56.57920455932617,
				0,
				-29.963232040405273
			],
			"type":"VEC3"
		},
		{
			"bufferView":1,
			"componentType":5126,
			"count":42457,
			"type":"VEC3"
		},
		{
			"bufferView":2,
			"componentType":5126,
			"count":42457,
			"type":"VEC2"
		},
		{
			"bufferView":3,
			"componentType":5126,
			"count":42457,
			"type":"VEC2"
		},
		{
			"bufferView":4,
			"componentType":5123,
			"count":90246,
			"type":"SCALAR"
		}
	],
	"bufferViews":[
		{
			"buffer":0,
			"byteLength":509484,
			"byteOffset":0,
			"target":34962
		},
		{
			"buffer":0,
			"byteLength":509484,
			"byteOffset":509484,
			"target":34962
		},
		{
			"buffer":0,
			"byteLength":339656,
			"byteOffset":1018968,
			"target":34962
		},
		{
			"buffer":0,
			"byteLength":339656,
			"byteOffset":1358624,
			"target":34962
		},
		{
			"buffer":0,
			"byteLength":180492,
			"byteOffset":1698280,
			"target":34963
		},
		{
			"buffer":0,
			"byteLength":340755,
			"byteOffset":1878772
		}
	],
	"samplers":[
		{
			"magFilter":9729,
			"minFilter":9987
		}
	],
	"buffers":[
		{
			"byteLength":2219528,
			"uri":"data:application/octet-stream;base64,"
		}
	]
}
