{
	"asset":{
		"generator":"Khronos glTF Blender I/O v4.2.60",
		"version":"2.0"
	},
	"scene":0,
	"scenes":[
		{
			"name":"Scene",
			"nodes":[
				0
			]
		}
	],
	"nodes":[
		{
			"mesh":0,
			"name":"tree without motion.001"
		}
	],
	"materials":[
		{
			"doubleSided":true,
			"name":"stone",
			"pbrMetallicRoughness":{
				"baseColorTexture":{
					"index":0
				},
				"metallicFactor":0,
				"roughnessFactor":0.8615819215774536
			}
		}
	],
	"meshes":[
		{
			"name":"tree.001",
			"primitives":[
				{
					"attributes":{
						"POSITION":0,
						"NORMAL":1,
						"TEXCOORD_0":2,
						"TEXCOORD_1":3
					},
					"indices":4,
					"material":0
				}
			]
		}
	],
	"textures":[
		{
			"sampler":0,
			"source":0
		}
	],
	"images":[
		{
			"bufferView":5,
			"mimeType":"image/png",
			"name":"Screenshot 2024-10-01 at 15.28.52"
		}
	],
	"accessors":[
		{
			"bufferView":0,
			"componentType":5126,
			"count":42273,
			"max":[
				25.35961151123047,
				21.614643096923828,
				60.12691116333008
			],
			"min":[
				-0.2960357666015625,
				0,
				33.44682693481445
			],
			"type":"VEC3"
		},
		{
			"bufferView":1,
			"componentType":5126,
			"count":42273,
			"type":"VEC3"
		},
		{
			"bufferView":2,
			"componentType":5126,
			"count":42273,
			"type":"VEC2"
		},
		{
			"bufferView":3,
			"componentType":5126,
			"count":42273,
			"type":"VEC2"
		},
		{
			"bufferView":4,
			"componentType":5123,
			"count":89352,
			"type":"SCALAR"
		}
	],
	"bufferViews":[
		{
			"buffer":0,
			"byteLength":507276,
			"byteOffset":0,
			"target":34962
		},
		{
			"buffer":0,
			"byteLength":507276,
			"byteOffset":507276,
			"target":34962
		},
		{
			"buffer":0,
			"byteLength":338184,
			"byteOffset":1014552,
			"target":34962
		},
		{
			"buffer":0,
			"byteLength":338184,
			"byteOffset":1352736,
			"target":34962
		},
		{
			"buffer":0,
			"byteLength":178704,
			"byteOffset":1690920,
			"target":34963
		},
		{
			"buffer":0,
			"byteLength":340755,
			"byteOffset":1869624
		}
	],
	"samplers":[
		{
			"magFilter":9729,
			"minFilter":9987
		}
	],
	"buffers":[
		{
			"byteLength":2210380,
			"uri":"data:application/octet-stream;base64,"
		}
	]
}
