{
	"asset":{
		"generator":"Khronos glTF Blender I/O v4.2.60",
		"version":"2.0"
	},
	"scene":0,
	"scenes":[
		{
			"name":"Scene",
			"nodes":[
				0
			]
		}
	],
	"nodes":[
		{
			"mesh":0,
			"name":"starting room.001"
		}
	],
	"materials":[
		{
			"doubleSided":true,
			"name":"stone",
			"pbrMetallicRoughness":{
				"baseColorTexture":{
					"index":0
				},
				"metallicFactor":0,
				"roughnessFactor":0.8615819215774536
			}
		}
	],
	"meshes":[
		{
			"name":"Cylinder.010",
			"primitives":[
				{
					"attributes":{
						"POSITION":0,
						"NORMAL":1,
						"TEXCOORD_0":2
					},
					"indices":3,
					"material":0
				}
			]
		}
	],
	"textures":[
		{
			"sampler":0,
			"source":0
		}
	],
	"images":[
		{
			"bufferView":4,
			"mimeType":"image/png",
			"name":"Screenshot 2024-10-01 at 15.28.52"
		}
	],
	"accessors":[
		{
			"bufferView":0,
			"componentType":5126,
			"count":3351,
			"max":[
				5.445991039276123,
				4.515718460083008,
				6.37980842590332
			],
			"min":[
				-5.409735202789307,
				-0.8073165416717529,
				-6.01249885559082
			],
			"type":"VEC3"
		},
		{
			"bufferView":1,
			"componentType":5126,
			"count":3351,
			"type":"VEC3"
		},
		{
			"bufferView":2,
			"componentType":5126,
			"count":3351,
			"type":"VEC2"
		},
		{
			"bufferView":3,
			"componentType":5123,
			"count":8742,
			"type":"SCALAR"
		}
	],
	"bufferViews":[
		{
			"buffer":0,
			"byteLength":40212,
			"byteOffset":0,
			"target":34962
		},
		{
			"buffer":0,
			"byteLength":40212,
			"byteOffset":40212,
			"target":34962
		},
		{
			"buffer":0,
			"byteLength":26808,
			"byteOffset":80424,
			"target":34962
		},
		{
			"buffer":0,
			"byteLength":17484,
			"byteOffset":107232,
			"target":34963
		},
		{
			"buffer":0,
			"byteLength":340755,
			"byteOffset":124716
		}
	],
	"samplers":[
		{
			"magFilter":9729,
			"minFilter":9987
		}
	],
	"buffers":[
		{
			"byteLength":465472,
			"uri":"data:application/octet-stream;base64,"
		}
	]
}
