{
	"asset":{
		"generator":"Khronos glTF Blender I/O v4.2.60",
		"version":"2.0"
	},
	"scene":0,
	"scenes":[
		{
			"name":"Scene",
			"nodes":[
				0
			]
		}
	],
	"nodes":[
		{
			"mesh":0,
			"name":"starting room.001"
		}
	],
	"materials":[
		{
			"doubleSided":true,
			"name":"stone",
			"pbrMetallicRoughness":{
				"baseColorTexture":{
					"index":0
				},
				"metallicFactor":0,
				"roughnessFactor":0.8615819215774536
			}
		}
	],
	"meshes":[
		{
			"name":"Cylinder.010",
			"primitives":[
				{
					"attributes":{
						"POSITION":0,
						"NORMAL":1,
						"TEXCOORD_0":2,
						"TEXCOORD_1":3,
						"TEXCOORD_2":4,
						"TEXCOORD_3":5
					},
					"indices":6,
					"material":0
				}
			]
		}
	],
	"textures":[
		{
			"sampler":0,
			"source":0
		}
	],
	"images":[
		{
			"bufferView":7,
			"mimeType":"image/png",
			"name":"Screenshot 2024-10-01 at 15.28.52"
		}
	],
	"accessors":[
		{
			"bufferView":0,
			"componentType":5126,
			"count":37748,
			"max":[
				81.48792266845703,
				73.39259338378906,
				67.4479751586914
			],
			"min":[
				-80.64836883544922,
				-12.1486234664917,
				-262.07080078125
			],
			"type":"VEC3"
		},
		{
			"bufferView":1,
			"componentType":5126,
			"count":37748,
			"type":"VEC3"
		},
		{
			"bufferView":2,
			"componentType":5126,
			"count":37748,
			"type":"VEC2"
		},
		{
			"bufferView":3,
			"componentType":5126,
			"count":37748,
			"type":"VEC2"
		},
		{
			"bufferView":4,
			"componentType":5126,
			"count":37748,
			"type":"VEC2"
		},
		{
			"bufferView":5,
			"componentType":5126,
			"count":37748,
			"type":"VEC2"
		},
		{
			"bufferView":6,
			"componentType":5123,
			"count":83991,
			"type":"SCALAR"
		}
	],
	"bufferViews":[
		{
			"buffer":0,
			"byteLength":452976,
			"byteOffset":0,
			"target":34962
		},
		{
			"buffer":0,
			"byteLength":452976,
			"byteOffset":452976,
			"target":34962
		},
		{
			"buffer":0,
			"byteLength":301984,
			"byteOffset":905952,
			"target":34962
		},
		{
			"buffer":0,
			"byteLength":301984,
			"byteOffset":1207936,
			"target":34962
		},
		{
			"buffer":0,
			"byteLength":301984,
			"byteOffset":1509920,
			"target":34962
		},
		{
			"buffer":0,
			"byteLength":301984,
			"byteOffset":1811904,
			"target":34962
		},
		{
			"buffer":0,
			"byteLength":167982,
			"byteOffset":2113888,
			"target":34963
		},
		{
			"buffer":0,
			"byteLength":340755,
			"byteOffset":2281872
		}
	],
	"samplers":[
		{
			"magFilter":9729,
			"minFilter":9987
		}
	],
	"buffers":[
		{
			"byteLength":2622628,
			"uri":"data:application/octet-stream;base64,"
		}
	]
}
