{
	"asset":{
		"generator":"Khronos glTF Blender I/O v4.2.60",
		"version":"2.0"
	},
	"scene":0,
	"scenes":[
		{
			"name":"Scene",
			"nodes":[
				0
			]
		}
	],
	"nodes":[
		{
			"mesh":0,
			"name":"stairs"
		}
	],
	"materials":[
		{
			"doubleSided":true,
			"name":"stone.002",
			"pbrMetallicRoughness":{
				"baseColorTexture":{
					"index":0
				},
				"metallicFactor":0,
				"roughnessFactor":0.8615819215774536
			}
		}
	],
	"meshes":[
		{
			"name":"Cube",
			"primitives":[
				{
					"attributes":{
						"POSITION":0,
						"NORMAL":1,
						"TEXCOORD_0":2
					},
					"indices":3,
					"material":0
				}
			]
		}
	],
	"textures":[
		{
			"sampler":0,
			"source":0
		}
	],
	"images":[
		{
			"bufferView":4,
			"mimeType":"image/png",
			"name":"Screenshot 2024-10-01 at 15.28.52"
		}
	],
	"accessors":[
		{
			"bufferView":0,
			"componentType":5126,
			"count":33458,
			"max":[
				25,
				9.025141716003418,
				25
			],
			"min":[
				-25,
				-0.026276588439941406,
				-25
			],
			"type":"VEC3"
		},
		{
			"bufferView":1,
			"componentType":5126,
			"count":33458,
			"type":"VEC3"
		},
		{
			"bufferView":2,
			"componentType":5126,
			"count":33458,
			"type":"VEC2"
		},
		{
			"bufferView":3,
			"componentType":5123,
			"count":98712,
			"type":"SCALAR"
		}
	],
	"bufferViews":[
		{
			"buffer":0,
			"byteLength":401496,
			"byteOffset":0,
			"target":34962
		},
		{
			"buffer":0,
			"byteLength":401496,
			"byteOffset":401496,
			"target":34962
		},
		{
			"buffer":0,
			"byteLength":267664,
			"byteOffset":802992,
			"target":34962
		},
		{
			"buffer":0,
			"byteLength":197424,
			"byteOffset":1070656,
			"target":34963
		},
		{
			"buffer":0,
			"byteLength":340755,
			"byteOffset":1268080
		}
	],
	"samplers":[
		{
			"magFilter":9729,
			"minFilter":9987
		}
	],
	"buffers":[
		{
			"byteLength":1608836,
			"uri":"data:application/octet-stream;base64,"
		}
	]
}
