{
	"asset":{
		"generator":"Khronos glTF Blender I/O v4.2.60",
		"version":"2.0"
	},
	"scene":0,
	"scenes":[
		{
			"name":"Scene",
			"nodes":[
				0
			]
		}
	],
	"nodes":[
		{
			"mesh":0,
			"name":"level joined"
		}
	],
	"materials":[
		{
			"doubleSided":true,
			"name":"stone.007",
			"pbrMetallicRoughness":{
				"baseColorTexture":{
					"index":0
				},
				"metallicFactor":0,
				"roughnessFactor":0.8615819215774536
			}
		}
	],
	"meshes":[
		{
			"name":"Cylinder.009",
			"primitives":[
				{
					"attributes":{
						"POSITION":0,
						"NORMAL":1,
						"TEXCOORD_0":2
					},
					"indices":3,
					"material":0
				}
			]
		}
	],
	"textures":[
		{
			"sampler":0,
			"source":0
		}
	],
	"images":[
		{
			"bufferView":4,
			"mimeType":"image/png",
			"name":"Screenshot 2024-10-01 at 15.28.52"
		}
	],
	"accessors":[
		{
			"bufferView":0,
			"componentType":5126,
			"count":31531,
			"max":[
				-7.047703742980957,
				8.356378555297852,
				-36.46998977661133
			],
			"min":[
				-23.257354736328125,
				-0.8542323112487793,
				-53.71146774291992
			],
			"type":"VEC3"
		},
		{
			"bufferView":1,
			"componentType":5126,
			"count":31531,
			"type":"VEC3"
		},
		{
			"bufferView":2,
			"componentType":5126,
			"count":31531,
			"type":"VEC2"
		},
		{
			"bufferView":3,
			"componentType":5123,
			"count":95763,
			"type":"SCALAR"
		}
	],
	"bufferViews":[
		{
			"buffer":0,
			"byteLength":378372,
			"byteOffset":0,
			"target":34962
		},
		{
			"buffer":0,
			"byteLength":378372,
			"byteOffset":378372,
			"target":34962
		},
		{
			"buffer":0,
			"byteLength":252248,
			"byteOffset":756744,
			"target":34962
		},
		{
			"buffer":0,
			"byteLength":191526,
			"byteOffset":1008992,
			"target":34963
		},
		{
			"buffer":0,
			"byteLength":340755,
			"byteOffset":1200520
		}
	],
	"samplers":[
		{
			"magFilter":9729,
			"minFilter":9987
		}
	],
	"buffers":[
		{
			"byteLength":1541276,
			"uri":"data:application/octet-stream;base64,"
		}
	]
}
