{
	"asset":{
		"generator":"Khronos glTF Blender I/O v4.2.60",
		"version":"2.0"
	},
	"scene":0,
	"scenes":[
		{
			"name":"Scene",
			"nodes":[
				0
			]
		}
	],
	"nodes":[
		{
			"mesh":0,
			"name":"volcano scaled up dec",
			"scale":[
				0.10000002384185791,
				0.10000002384185791,
				0.10000002384185791
			],
			"translation":[
				5.971447467803955,
				0.18099403381347656,
				1.1818161010742188
			]
		}
	],
	"materials":[
		{
			"doubleSided":true,
			"name":"test",
			"pbrMetallicRoughness":{
				"baseColorTexture":{
					"index":0
				},
				"metallicFactor":0,
				"roughnessFactor":0.8430420756340027
			}
		}
	],
	"meshes":[
		{
			"name":"Grid.008",
			"primitives":[
				{
					"attributes":{
						"POSITION":0,
						"NORMAL":1,
						"TEXCOORD_0":2
					},
					"indices":3,
					"material":0
				}
			]
		}
	],
	"textures":[
		{
			"sampler":0,
			"source":0
		}
	],
	"images":[
		{
			"bufferView":4,
			"mimeType":"image/png",
			"name":"Screenshot 2024-10-01 at 15.28.52"
		}
	],
	"accessors":[
		{
			"bufferView":0,
			"componentType":5126,
			"count":5384,
			"max":[
				505.8469543457031,
				472.663330078125,
				-93.0739974975586
			],
			"min":[
				-493.4364013671875,
				-20.875022888183594,
				-1028.4039306640625
			],
			"type":"VEC3"
		},
		{
			"bufferView":1,
			"componentType":5126,
			"count":5384,
			"type":"VEC3"
		},
		{
			"bufferView":2,
			"componentType":5126,
			"count":5384,
			"type":"VEC2"
		},
		{
			"bufferView":3,
			"componentType":5123,
			"count":19650,
			"type":"SCALAR"
		}
	],
	"bufferViews":[
		{
			"buffer":0,
			"byteLength":64608,
			"byteOffset":0,
			"target":34962
		},
		{
			"buffer":0,
			"byteLength":64608,
			"byteOffset":64608,
			"target":34962
		},
		{
			"buffer":0,
			"byteLength":43072,
			"byteOffset":129216,
			"target":34962
		},
		{
			"buffer":0,
			"byteLength":39300,
			"byteOffset":172288,
			"target":34963
		},
		{
			"buffer":0,
			"byteLength":340755,
			"byteOffset":211588
		}
	],
	"samplers":[
		{
			"magFilter":9729,
			"minFilter":9987
		}
	],
	"buffers":[
		{
			"byteLength":552344,
			"uri":"data:application/octet-stream;base64,"
		}
	]
}
