{
	"asset":{
		"generator":"Khronos glTF Blender I/O v4.2.60",
		"version":"2.0"
	},
	"scene":0,
	"scenes":[
		{
			"name":"Scene",
			"nodes":[
				0
			]
		}
	],
	"nodes":[
		{
			"mesh":0,
			"name":"floor start",
			"scale":[
				0.10000002384185791,
				0.10000002384185791,
				0.10000002384185791
			],
			"translation":[
				5.971446990966797,
				0.18099474906921387,
				1.1818130016326904
			]
		}
	],
	"materials":[
		{
			"doubleSided":true,
			"name":"stone",
			"pbrMetallicRoughness":{
				"baseColorTexture":{
					"index":0
				},
				"metallicFactor":0,
				"roughnessFactor":0.8615819215774536
			}
		},
		{
			"doubleSided":true,
			"name":"test",
			"pbrMetallicRoughness":{
				"baseColorTexture":{
					"index":1
				},
				"metallicFactor":0,
				"roughnessFactor":0.8430420756340027
			}
		}
	],
	"meshes":[
		{
			"name":"Cylinder.025",
			"primitives":[
				{
					"attributes":{
						"POSITION":0,
						"NORMAL":1,
						"TEXCOORD_0":2,
						"TEXCOORD_1":3,
						"TEXCOORD_2":4,
						"COLOR_0":5,
						"COLOR_1":6
					},
					"indices":7,
					"material":0
				},
				{
					"attributes":{
						"POSITION":8,
						"NORMAL":9,
						"TEXCOORD_0":10,
						"TEXCOORD_1":11,
						"TEXCOORD_2":12,
						"COLOR_0":13,
						"COLOR_1":14
					},
					"indices":15,
					"material":1
				}
			]
		}
	],
	"textures":[
		{
			"sampler":0,
			"source":0
		},
		{
			"sampler":0,
			"source":0
		}
	],
	"images":[
		{
			"bufferView":8,
			"mimeType":"image/png",
			"name":"Screenshot 2024-10-01 at 15.28.52"
		}
	],
	"accessors":[
		{
			"bufferView":0,
			"componentType":5126,
			"count":29720,
			"max":[
				60.67601013183594,
				56.24979782104492,
				15.460861206054688
			],
			"min":[
				-60.67601776123047,
				-0.5,
				-186.20623779296875
			],
			"type":"VEC3"
		},
		{
			"bufferView":1,
			"componentType":5126,
			"count":29720,
			"type":"VEC3"
		},
		{
			"bufferView":2,
			"componentType":5126,
			"count":29720,
			"type":"VEC2"
		},
		{
			"bufferView":3,
			"componentType":5126,
			"count":29720,
			"type":"VEC2"
		},
		{
			"bufferView":4,
			"componentType":5126,
			"count":29720,
			"type":"VEC2"
		},
		{
			"bufferView":5,
			"componentType":5121,
			"count":29720,
			"normalized":true,
			"type":"VEC4"
		},
		{
			"bufferView":6,
			"componentType":5126,
			"count":29720,
			"type":"VEC3"
		},
		{
			"bufferView":7,
			"componentType":5123,
			"count":43113,
			"type":"SCALAR"
		},
		{
			"bufferView":9,
			"componentType":5126,
			"count":4565,
			"max":[
				786.4537353515625,
				468.2189636230469,
				79.0394287109375
			],
			"min":[
				-740.04052734375,
				-20.879379272460938,
				-1612.990478515625
			],
			"type":"VEC3"
		},
		{
			"bufferView":10,
			"componentType":5126,
			"count":4565,
			"type":"VEC3"
		},
		{
			"bufferView":11,
			"componentType":5126,
			"count":4565,
			"type":"VEC2"
		},
		{
			"bufferView":12,
			"componentType":5126,
			"count":4565,
			"type":"VEC2"
		},
		{
			"bufferView":13,
			"componentType":5126,
			"count":4565,
			"type":"VEC2"
		},
		{
			"bufferView":14,
			"componentType":5121,
			"count":4565,
			"normalized":true,
			"type":"VEC4"
		},
		{
			"bufferView":15,
			"componentType":5126,
			"count":4565,
			"type":"VEC3"
		},
		{
			"bufferView":16,
			"componentType":5123,
			"count":12393,
			"type":"SCALAR"
		}
	],
	"bufferViews":[
		{
			"buffer":0,
			"byteLength":356640,
			"byteOffset":0,
			"target":34962
		},
		{
			"buffer":0,
			"byteLength":356640,
			"byteOffset":356640,
			"target":34962
		},
		{
			"buffer":0,
			"byteLength":237760,
			"byteOffset":713280,
			"target":34962
		},
		{
			"buffer":0,
			"byteLength":237760,
			"byteOffset":951040,
			"target":34962
		},
		{
			"buffer":0,
			"byteLength":237760,
			"byteOffset":1188800,
			"target":34962
		},
		{
			"buffer":0,
			"byteLength":118880,
			"byteOffset":1426560,
			"target":34962
		},
		{
			"buffer":0,
			"byteLength":356640,
			"byteOffset":1545440,
			"target":34962
		},
		{
			"buffer":0,
			"byteLength":86226,
			"byteOffset":1902080,
			"target":34963
		},
		{
			"buffer":0,
			"byteLength":340755,
			"byteOffset":1988308
		},
		{
			"buffer":0,
			"byteLength":54780,
			"byteOffset":2329064,
			"target":34962
		},
		{
			"buffer":0,
			"byteLength":54780,
			"byteOffset":2383844,
			"target":34962
		},
		{
			"buffer":0,
			"byteLength":36520,
			"byteOffset":2438624,
			"target":34962
		},
		{
			"buffer":0,
			"byteLength":36520,
			"byteOffset":2475144,
			"target":34962
		},
		{
			"buffer":0,
			"byteLength":36520,
			"byteOffset":2511664,
			"target":34962
		},
		{
			"buffer":0,
			"byteLength":18260,
			"byteOffset":2548184,
			"target":34962
		},
		{
			"buffer":0,
			"byteLength":54780,
			"byteOffset":2566444,
			"target":34962
		},
		{
			"buffer":0,
			"byteLength":24786,
			"byteOffset":2621224,
			"target":34963
		}
	],
	"samplers":[
		{
			"magFilter":9729,
			"minFilter":9987
		}
	],
	"buffers":[
		{
			"byteLength":2646012,
			"uri":"data:application/octet-stream;base64,"
		}
	]
}
