{
	"asset":{
		"generator":"Khronos glTF Blender I/O v4.2.60",
		"version":"2.0"
	},
	"scene":0,
	"scenes":[
		{
			"name":"Scene",
			"nodes":[
				0
			]
		}
	],
	"nodes":[
		{
			"mesh":0,
			"name":"basalt walls realized.867"
		}
	],
	"materials":[
		{
			"doubleSided":true,
			"name":"stone",
			"pbrMetallicRoughness":{
				"baseColorTexture":{
					"index":0
				},
				"metallicFactor":0,
				"roughnessFactor":0.8615819215774536
			}
		}
	],
	"meshes":[
		{
			"name":"Plane.879",
			"primitives":[
				{
					"attributes":{
						"POSITION":0,
						"NORMAL":1,
						"TEXCOORD_0":2
					},
					"indices":3,
					"material":0
				}
			]
		}
	],
	"textures":[
		{
			"sampler":0,
			"source":0
		}
	],
	"images":[
		{
			"bufferView":4,
			"mimeType":"image/png",
			"name":"Screenshot 2024-10-01 at 15.28.52"
		}
	],
	"accessors":[
		{
			"bufferView":0,
			"componentType":5126,
			"count":39924,
			"max":[
				70.89237213134766,
				53.82030487060547,
				67.97118377685547
			],
			"min":[
				-68.1174087524414,
				-20.6049747467041,
				-110.25231170654297
			],
			"type":"VEC3"
		},
		{
			"bufferView":1,
			"componentType":5126,
			"count":39924,
			"type":"VEC3"
		},
		{
			"bufferView":2,
			"componentType":5126,
			"count":39924,
			"type":"VEC2"
		},
		{
			"bufferView":3,
			"componentType":5123,
			"count":66540,
			"type":"SCALAR"
		}
	],
	"bufferViews":[
		{
			"buffer":0,
			"byteLength":479088,
			"byteOffset":0,
			"target":34962
		},
		{
			"buffer":0,
			"byteLength":479088,
			"byteOffset":479088,
			"target":34962
		},
		{
			"buffer":0,
			"byteLength":319392,
			"byteOffset":958176,
			"target":34962
		},
		{
			"buffer":0,
			"byteLength":133080,
			"byteOffset":1277568,
			"target":34963
		},
		{
			"buffer":0,
			"byteLength":340755,
			"byteOffset":1410648
		}
	],
	"samplers":[
		{
			"magFilter":9729,
			"minFilter":9987
		}
	],
	"buffers":[
		{
			"byteLength":1751404,
			"uri":"data:application/octet-stream;base64,"
		}
	]
}
